<svg width="27" height="26" viewBox="0 0 27 26" fill="none" xmlns="http://www.w3.org/2000/svg">
<path d="M1 19.75C1 20.3776 1.12362 20.9991 1.36381 21.579C1.604 22.1589 1.95605 22.6857 2.39986 23.1296C2.84367 23.5734 3.37055 23.9254 3.95041 24.1656C4.53027 24.4058 5.15177 24.5294 5.77941 24.5294C6.40705 24.5294 7.02855 24.4058 7.60841 24.1656C8.18828 23.9254 8.71516 23.5734 9.15897 23.1296C9.60277 22.6857 9.95482 22.1589 10.195 21.579C10.4352 20.9991 10.5588 20.3776 10.5588 19.75C10.5588 19.1224 10.4352 18.5009 10.195 17.921C9.95482 17.3411 9.60277 16.8143 9.15897 16.3704C8.71516 15.9266 8.18828 15.5746 7.60841 15.3344C7.02855 15.0942 6.40705 14.9706 5.77941 14.9706C5.15177 14.9706 4.53027 15.0942 3.95041 15.3344C3.37055 15.5746 2.84367 15.9266 2.39986 16.3704C1.95605 16.8143 1.604 17.3411 1.36381 17.921C1.12362 18.5009 1 19.1224 1 19.75Z" stroke="white" stroke-width="2" stroke-linecap="round" stroke-linejoin="round"/>
<path d="M7.61765 2.14379C7.61765 1.84044 7.73815 1.54951 7.95265 1.33501C8.16716 1.12051 8.45808 1 8.76144 1H16.768C17.0713 1 17.3623 1.12051 17.5768 1.33501C17.7913 1.54951 17.9118 1.84044 17.9118 2.14379V10.1503C17.9118 10.4537 17.7913 10.7446 17.5768 10.9591C17.3623 11.1736 17.0713 11.2941 16.768 11.2941H8.76144C8.45808 11.2941 8.16716 11.1736 7.95265 10.9591C7.73815 10.7446 7.61765 10.4537 7.61765 10.1503V2.14379Z" stroke="white" stroke-width="2" stroke-linecap="round" stroke-linejoin="round"/>
<path d="M20.0104 15.4799L15.8379 22.9457C15.7519 23.1053 15.7064 23.2863 15.7059 23.4706C15.7054 23.655 15.7499 23.8362 15.8351 23.9964C15.9203 24.1565 16.0431 24.29 16.1913 24.3835C16.3395 24.477 16.508 24.5273 16.68 24.5294H25.0261C25.1981 24.5273 25.3665 24.477 25.5146 24.3835C25.6628 24.29 25.7855 24.1566 25.8707 23.9965C25.9558 23.8365 26.0004 23.6553 26 23.471C25.9996 23.2868 25.9541 23.1058 25.8683 22.9462L21.6957 15.4793C21.6079 15.324 21.4843 15.1956 21.3367 15.1065C21.1891 15.0174 21.0225 14.9706 20.8531 14.9706C20.6837 14.9706 20.5171 15.0174 20.3695 15.1065C20.2219 15.1956 20.0982 15.324 20.0104 15.4793V15.4799Z" stroke="white" stroke-width="2" stroke-linecap="round" stroke-linejoin="round"/>
</svg>
